<svg xmlns="http://www.w3.org/2000/svg" width="800" height="450" viewBox="0 0 800 450"><rect width="100%" height="100%" fill="white"/><text x="400.0" y="30" text-anchor="middle" font-size="20" fill="#111">Hydrograph at SB1</text><text x="35.0" y="40" text-anchor="middle" font-size="12" fill="#333" transform="rotate(-90 35.0,225.0)">Discharge</text><text x="420.0" y="440" text-anchor="middle" font-size="12" fill="#333">Time Step</text><line x1="70" y1="390" x2="70" y2="60" stroke="#444" stroke-width="1"/><line x1="70" y1="390" x2="770" y2="390" stroke="#444" stroke-width="1"/><line x1="70" y1="390.0" x2="770" y2="390.0" stroke="#e0e0e0" stroke-width="1" stroke-dasharray="4,4"/><text x="60" y="394.0" text-anchor="end" font-size="11" fill="#333">0.00</text><line x1="70" y1="324.0" x2="770" y2="324.0" stroke="#e0e0e0" stroke-width="1" stroke-dasharray="4,4"/><text x="60" y="328.0" text-anchor="end" font-size="11" fill="#333">15.04</text><line x1="70" y1="258.0" x2="770" y2="258.0" stroke="#e0e0e0" stroke-width="1" stroke-dasharray="4,4"/><text x="60" y="262.0" text-anchor="end" font-size="11" fill="#333">30.08</text><line x1="70" y1="192.0" x2="770" y2="192.0" stroke="#e0e0e0" stroke-width="1" stroke-dasharray="4,4"/><text x="60" y="196.0" text-anchor="end" font-size="11" fill="#333">45.12</text><line x1="70" y1="126.0" x2="770" y2="126.0" stroke="#e0e0e0" stroke-width="1" stroke-dasharray="4,4"/><text x="60" y="130.0" text-anchor="end" font-size="11" fill="#333">60.17</text><line x1="70" y1="60.0" x2="770" y2="60.0" stroke="#e0e0e0" stroke-width="1" stroke-dasharray="4,4"/><text x="60" y="64.0" text-anchor="end" font-size="11" fill="#333">75.21</text><polyline fill="none" stroke="#1f77b4" stroke-width="2" points="70.00,237.20 133.64,210.24 197.27,231.39 260.91,250.05 324.55,390.00 388.18,275.81 451.82,118.35 515.45,150.31 579.09,178.51 642.73,204.20 706.36,224.71 770.00,244.15"/><polyline fill="none" stroke="#ff7f0e" stroke-width="2" points="70.00,193.02 133.64,158.26 197.27,185.79 260.91,209.37 324.55,390.00 388.18,244.89 451.82,60.00 515.45,98.82 579.09,133.08 642.73,165.35 706.36,188.37 770.00,212.09"/><polyline fill="none" stroke="#111" stroke-width="2" stroke-dasharray="6,4" points="70.00,232.62 133.64,210.24 197.27,231.39 260.91,252.84 324.55,390.00 388.18,275.81 451.82,123.79 515.45,150.31 579.09,172.17 642.73,207.92 706.36,224.71 770.00,244.15"/><rect x="80" y="25" width="12" height="12" fill="#1f77b4" /><text x="98" y="35" font-size="12" fill="#333">baseline</text><rect x="170" y="25" width="12" height="12" fill="#ff7f0e" /><text x="188" y="35" font-size="12" fill="#333">reservoir_reoperation</text><rect x="260" y="25" width="12" height="12" fill="none" stroke="#111" stroke-width="2" stroke-dasharray="6,4" /><text x="278" y="35" font-size="12" fill="#333">Observed</text></svg>