<svg xmlns="http://www.w3.org/2000/svg" width="800" height="450" viewBox="0 0 800 450"><rect width="100%" height="100%" fill="white"/><text x="400.0" y="30" text-anchor="middle" font-size="20" fill="#111">Hydrograph at SB4</text><text x="35.0" y="40" text-anchor="middle" font-size="12" fill="#333" transform="rotate(-90 35.0,225.0)">Discharge</text><text x="420.0" y="440" text-anchor="middle" font-size="12" fill="#333">Time Step</text><line x1="70" y1="390" x2="70" y2="60" stroke="#444" stroke-width="1"/><line x1="70" y1="390" x2="770" y2="390" stroke="#444" stroke-width="1"/><line x1="70" y1="390.0" x2="770" y2="390.0" stroke="#e0e0e0" stroke-width="1" stroke-dasharray="4,4"/><text x="60" y="394.0" text-anchor="end" font-size="11" fill="#333">0.00</text><line x1="70" y1="324.0" x2="770" y2="324.0" stroke="#e0e0e0" stroke-width="1" stroke-dasharray="4,4"/><text x="60" y="328.0" text-anchor="end" font-size="11" fill="#333">1501.99</text><line x1="70" y1="258.0" x2="770" y2="258.0" stroke="#e0e0e0" stroke-width="1" stroke-dasharray="4,4"/><text x="60" y="262.0" text-anchor="end" font-size="11" fill="#333">3003.98</text><line x1="70" y1="192.0" x2="770" y2="192.0" stroke="#e0e0e0" stroke-width="1" stroke-dasharray="4,4"/><text x="60" y="196.0" text-anchor="end" font-size="11" fill="#333">4505.97</text><line x1="70" y1="126.0" x2="770" y2="126.0" stroke="#e0e0e0" stroke-width="1" stroke-dasharray="4,4"/><text x="60" y="130.0" text-anchor="end" font-size="11" fill="#333">6007.96</text><line x1="70" y1="60.0" x2="770" y2="60.0" stroke="#e0e0e0" stroke-width="1" stroke-dasharray="4,4"/><text x="60" y="64.0" text-anchor="end" font-size="11" fill="#333">7509.95</text><polyline fill="none" stroke="#1f77b4" stroke-width="2" points="70.00,75.35 133.64,60.00 197.27,71.65 260.91,66.26 324.55,109.61 388.18,109.11 451.82,95.71 515.45,107.76 579.09,131.80 642.73,164.55 706.36,169.20 770.00,192.69"/><polyline fill="none" stroke="#ff7f0e" stroke-width="2" points="70.00,74.90 133.64,62.04 197.27,71.62 260.91,66.77 324.55,102.60 388.18,102.08 451.82,89.45 515.45,98.44 579.09,117.29 642.73,143.97 706.36,148.43 770.00,168.35"/><polyline fill="none" stroke="#2ca02c" stroke-width="2" points="70.00,174.96 133.64,155.29 197.27,181.66 260.91,183.60 324.55,230.94 388.18,225.78 451.82,202.44 515.45,206.66 579.09,223.22 642.73,248.89 706.36,245.80 770.00,262.35"/><polyline fill="none" stroke="#111" stroke-width="2" stroke-dasharray="6,4" points="70.00,65.91 133.64,60.00 197.27,71.65 260.91,72.73 324.55,101.20 388.18,109.11 451.82,101.60 515.45,107.76 579.09,124.05 642.73,169.06 706.36,169.20 770.00,192.69"/><rect x="80" y="25" width="12" height="12" fill="#1f77b4" /><text x="98" y="35" font-size="12" fill="#333">baseline</text><rect x="170" y="25" width="12" height="12" fill="#ff7f0e" /><text x="188" y="35" font-size="12" fill="#333">reservoir_reoperation</text><rect x="260" y="25" width="12" height="12" fill="#2ca02c" /><text x="278" y="35" font-size="12" fill="#333">vic_hbv_tuning</text><rect x="350" y="25" width="12" height="12" fill="none" stroke="#111" stroke-width="2" stroke-dasharray="6,4" /><text x="368" y="35" font-size="12" fill="#333">Observed</text></svg>