<svg xmlns="http://www.w3.org/2000/svg" width="800" height="450" viewBox="0 0 800 450"><rect width="100%" height="100%" fill="white"/><text x="400.0" y="30" text-anchor="middle" font-size="20" fill="#111">Hydrograph at SB2</text><text x="35.0" y="40" text-anchor="middle" font-size="12" fill="#333" transform="rotate(-90 35.0,225.0)">Discharge</text><text x="420.0" y="440" text-anchor="middle" font-size="12" fill="#333">Time Step</text><line x1="70" y1="390" x2="70" y2="60" stroke="#444" stroke-width="1"/><line x1="70" y1="390" x2="770" y2="390" stroke="#444" stroke-width="1"/><line x1="70" y1="390.0" x2="770" y2="390.0" stroke="#e0e0e0" stroke-width="1" stroke-dasharray="4,4"/><text x="60" y="394.0" text-anchor="end" font-size="11" fill="#333">0.00</text><line x1="70" y1="324.0" x2="770" y2="324.0" stroke="#e0e0e0" stroke-width="1" stroke-dasharray="4,4"/><text x="60" y="328.0" text-anchor="end" font-size="11" fill="#333">456.73</text><line x1="70" y1="258.0" x2="770" y2="258.0" stroke="#e0e0e0" stroke-width="1" stroke-dasharray="4,4"/><text x="60" y="262.0" text-anchor="end" font-size="11" fill="#333">913.45</text><line x1="70" y1="191.99999999999997" x2="770" y2="191.99999999999997" stroke="#e0e0e0" stroke-width="1" stroke-dasharray="4,4"/><text x="60" y="195.99999999999997" text-anchor="end" font-size="11" fill="#333">1370.18</text><line x1="70" y1="126.0" x2="770" y2="126.0" stroke="#e0e0e0" stroke-width="1" stroke-dasharray="4,4"/><text x="60" y="130.0" text-anchor="end" font-size="11" fill="#333">1826.91</text><line x1="70" y1="60.0" x2="770" y2="60.0" stroke="#e0e0e0" stroke-width="1" stroke-dasharray="4,4"/><text x="60" y="64.0" text-anchor="end" font-size="11" fill="#333">2283.64</text><polyline fill="none" stroke="#1f77b4" stroke-width="2" points="70.00,79.84 133.64,60.00 197.27,77.54 260.91,71.86 324.55,120.23 388.18,121.20 451.82,99.22 515.45,114.50 579.09,143.18 642.73,179.70 706.36,186.32 770.00,213.22"/><polyline fill="none" stroke="#ff7f0e" stroke-width="2" points="70.00,79.84 133.64,60.00 197.27,77.54 260.91,71.86 324.55,120.23 388.18,121.20 451.82,99.22 515.45,114.50 579.09,143.18 642.73,179.70 706.36,186.32 770.00,213.22"/><polyline fill="none" stroke="#111" stroke-width="2" stroke-dasharray="6,4" points="70.00,70.53 133.64,60.00 197.27,77.54 260.91,78.22 324.55,112.14 388.18,121.20 451.82,105.03 515.45,114.50 579.09,135.78 642.73,183.91 706.36,186.32 770.00,213.22"/><rect x="80" y="25" width="12" height="12" fill="#1f77b4" /><text x="98" y="35" font-size="12" fill="#333">baseline</text><rect x="170" y="25" width="12" height="12" fill="#ff7f0e" /><text x="188" y="35" font-size="12" fill="#333">reservoir_reoperation</text><rect x="260" y="25" width="12" height="12" fill="none" stroke="#111" stroke-width="2" stroke-dasharray="6,4" /><text x="278" y="35" font-size="12" fill="#333">Observed</text></svg>