<svg xmlns="http://www.w3.org/2000/svg" width="800" height="450" viewBox="0 0 800 450"><rect width="100%" height="100%" fill="white"/><text x="400.0" y="30" text-anchor="middle" font-size="20" fill="#111">Hydrograph at SB3</text><text x="35.0" y="40" text-anchor="middle" font-size="12" fill="#333" transform="rotate(-90 35.0,225.0)">Discharge</text><text x="420.0" y="440" text-anchor="middle" font-size="12" fill="#333">Time Step</text><line x1="70" y1="390" x2="70" y2="60" stroke="#444" stroke-width="1"/><line x1="70" y1="390" x2="770" y2="390" stroke="#444" stroke-width="1"/><line x1="70" y1="390.0" x2="770" y2="390.0" stroke="#e0e0e0" stroke-width="1" stroke-dasharray="4,4"/><text x="60" y="394.0" text-anchor="end" font-size="11" fill="#333">0.00</text><line x1="70" y1="324.0" x2="770" y2="324.0" stroke="#e0e0e0" stroke-width="1" stroke-dasharray="4,4"/><text x="60" y="328.0" text-anchor="end" font-size="11" fill="#333">1472.47</text><line x1="70" y1="258.0" x2="770" y2="258.0" stroke="#e0e0e0" stroke-width="1" stroke-dasharray="4,4"/><text x="60" y="262.0" text-anchor="end" font-size="11" fill="#333">2944.94</text><line x1="70" y1="192.0" x2="770" y2="192.0" stroke="#e0e0e0" stroke-width="1" stroke-dasharray="4,4"/><text x="60" y="196.0" text-anchor="end" font-size="11" fill="#333">4417.41</text><line x1="70" y1="126.0" x2="770" y2="126.0" stroke="#e0e0e0" stroke-width="1" stroke-dasharray="4,4"/><text x="60" y="130.0" text-anchor="end" font-size="11" fill="#333">5889.88</text><line x1="70" y1="60.0" x2="770" y2="60.0" stroke="#e0e0e0" stroke-width="1" stroke-dasharray="4,4"/><text x="60" y="64.0" text-anchor="end" font-size="11" fill="#333">7362.35</text><polyline fill="none" stroke="#1f77b4" stroke-width="2" points="70.00,76.13 133.64,60.00 197.27,71.64 260.91,66.74 324.55,110.26 388.18,109.54 451.82,97.72 515.45,113.51 579.09,141.84 642.73,177.84 706.36,185.10 770.00,210.89"/><polyline fill="none" stroke="#ff7f0e" stroke-width="2" points="70.00,75.68 133.64,62.08 197.27,71.62 260.91,67.26 324.55,103.11 388.18,102.37 451.82,91.34 515.45,104.00 579.09,127.05 642.73,156.86 706.36,163.91 770.00,186.06"/><polyline fill="none" stroke="#2ca02c" stroke-width="2" points="70.00,177.74 133.64,157.20 197.27,183.86 260.91,186.43 324.55,234.02 388.18,228.55 451.82,206.60 515.45,214.39 579.09,235.10 642.73,263.88 706.36,263.24 770.00,281.94"/><polyline fill="none" stroke="#111" stroke-width="2" stroke-dasharray="6,4" points="70.00,66.71 133.64,60.00 197.27,71.64 260.91,73.20 324.55,101.87 388.18,109.54 451.82,103.57 515.45,113.51 579.09,134.40 642.73,182.09 706.36,185.10 770.00,210.89"/><rect x="80" y="25" width="12" height="12" fill="#1f77b4" /><text x="98" y="35" font-size="12" fill="#333">baseline</text><rect x="170" y="25" width="12" height="12" fill="#ff7f0e" /><text x="188" y="35" font-size="12" fill="#333">reservoir_reoperation</text><rect x="260" y="25" width="12" height="12" fill="#2ca02c" /><text x="278" y="35" font-size="12" fill="#333">vic_hbv_tuning</text><rect x="350" y="25" width="12" height="12" fill="none" stroke="#111" stroke-width="2" stroke-dasharray="6,4" /><text x="368" y="35" font-size="12" fill="#333">Observed</text></svg>