<svg xmlns="http://www.w3.org/2000/svg" width="800" height="450" viewBox="0 0 800 450"><rect width="100%" height="100%" fill="white"/><text x="400.0" y="30" text-anchor="middle" font-size="20" fill="#111">Hydrograph at SB1</text><text x="35.0" y="40" text-anchor="middle" font-size="12" fill="#333" transform="rotate(-90 35.0,225.0)">Discharge</text><text x="420.0" y="440" text-anchor="middle" font-size="12" fill="#333">Time Step</text><line x1="70" y1="390" x2="70" y2="60" stroke="#444" stroke-width="1"/><line x1="70" y1="390" x2="770" y2="390" stroke="#444" stroke-width="1"/><line x1="70" y1="390.0" x2="770" y2="390.0" stroke="#e0e0e0" stroke-width="1" stroke-dasharray="4,4"/><text x="60" y="394.0" text-anchor="end" font-size="11" fill="#333">0.00</text><line x1="70" y1="324.0" x2="770" y2="324.0" stroke="#e0e0e0" stroke-width="1" stroke-dasharray="4,4"/><text x="60" y="328.0" text-anchor="end" font-size="11" fill="#333">484.99</text><line x1="70" y1="258.0" x2="770" y2="258.0" stroke="#e0e0e0" stroke-width="1" stroke-dasharray="4,4"/><text x="60" y="262.0" text-anchor="end" font-size="11" fill="#333">969.99</text><line x1="70" y1="192.0" x2="770" y2="192.0" stroke="#e0e0e0" stroke-width="1" stroke-dasharray="4,4"/><text x="60" y="196.0" text-anchor="end" font-size="11" fill="#333">1454.98</text><line x1="70" y1="126.0" x2="770" y2="126.0" stroke="#e0e0e0" stroke-width="1" stroke-dasharray="4,4"/><text x="60" y="130.0" text-anchor="end" font-size="11" fill="#333">1939.98</text><line x1="70" y1="60.0" x2="770" y2="60.0" stroke="#e0e0e0" stroke-width="1" stroke-dasharray="4,4"/><text x="60" y="64.0" text-anchor="end" font-size="11" fill="#333">2424.97</text><polyline fill="none" stroke="#1f77b4" stroke-width="2" points="70.00,385.26 133.64,384.42 197.27,385.08 260.91,385.66 324.55,390.00 388.18,386.46 451.82,381.58 515.45,382.57 579.09,383.44 642.73,384.24 706.36,384.87 770.00,385.48"/><polyline fill="none" stroke="#ff7f0e" stroke-width="2" points="70.00,383.89 133.64,382.81 197.27,383.67 260.91,384.40 324.55,390.00 388.18,385.50 451.82,379.77 515.45,380.97 579.09,382.03 642.73,383.03 706.36,383.75 770.00,384.48"/><polyline fill="none" stroke="#2ca02c" stroke-width="2" points="70.00,108.60 133.64,60.00 197.27,115.27 260.91,118.15 324.55,206.98 388.18,184.40 451.82,135.75 515.45,140.40 579.09,169.13 642.73,214.73 706.36,201.01 770.00,228.40"/><polyline fill="none" stroke="#111" stroke-width="2" stroke-dasharray="6,4" points="70.00,385.12 133.64,384.42 197.27,385.08 260.91,385.75 324.55,390.00 388.18,386.46 451.82,381.74 515.45,382.57 579.09,383.24 642.73,384.35 706.36,384.87 770.00,385.48"/><rect x="80" y="25" width="12" height="12" fill="#1f77b4" /><text x="98" y="35" font-size="12" fill="#333">baseline</text><rect x="170" y="25" width="12" height="12" fill="#ff7f0e" /><text x="188" y="35" font-size="12" fill="#333">reservoir_reoperation</text><rect x="260" y="25" width="12" height="12" fill="#2ca02c" /><text x="278" y="35" font-size="12" fill="#333">vic_hbv_tuning</text><rect x="350" y="25" width="12" height="12" fill="none" stroke="#111" stroke-width="2" stroke-dasharray="6,4" /><text x="368" y="35" font-size="12" fill="#333">Observed</text></svg>