<svg xmlns="http://www.w3.org/2000/svg" width="800" height="450" viewBox="0 0 800 450"><rect width="100%" height="100%" fill="white"/><text x="400.0" y="30" text-anchor="middle" font-size="20" fill="#111">Aggregated PBIAS by Model</text><text x="35.0" y="40" text-anchor="middle" font-size="12" fill="#333" transform="rotate(-90 35.0,220.0)">PBIAS</text><line x1="70" y1="380" x2="70" y2="60" stroke="#444" stroke-width="1"/><line x1="70" y1="380" x2="770" y2="380" stroke="#444" stroke-width="1"/><line x1="70" y1="380.0" x2="770" y2="380.0" stroke="#e0e0e0" stroke-width="1" stroke-dasharray="4,4"/><text x="60" y="384.0" text-anchor="end" font-size="11" fill="#333">0.00</text><line x1="70" y1="316.0" x2="770" y2="316.0" stroke="#e0e0e0" stroke-width="1" stroke-dasharray="4,4"/><text x="60" y="320.0" text-anchor="end" font-size="11" fill="#333">228.28</text><line x1="70" y1="252.0" x2="770" y2="252.0" stroke="#e0e0e0" stroke-width="1" stroke-dasharray="4,4"/><text x="60" y="256.0" text-anchor="end" font-size="11" fill="#333">456.57</text><line x1="70" y1="188.0" x2="770" y2="188.0" stroke="#e0e0e0" stroke-width="1" stroke-dasharray="4,4"/><text x="60" y="192.0" text-anchor="end" font-size="11" fill="#333">684.85</text><line x1="70" y1="124.0" x2="770" y2="124.0" stroke="#e0e0e0" stroke-width="1" stroke-dasharray="4,4"/><text x="60" y="128.0" text-anchor="end" font-size="11" fill="#333">913.13</text><line x1="70" y1="60.0" x2="770" y2="60.0" stroke="#e0e0e0" stroke-width="1" stroke-dasharray="4,4"/><text x="60" y="64.0" text-anchor="end" font-size="11" fill="#333">1141.42</text><rect x="116.67" y="379.94" width="140.00" height="0.06" fill="#2ca02c" /><text x="186.67" y="373.94" text-anchor="middle" font-size="11" fill="#333">0.21</text><text x="186.67" y="398.00" text-anchor="middle" font-size="12" fill="#333">baseline</text><rect x="350.00" y="377.85" width="140.00" height="2.15" fill="#b0c4de" /><text x="420.00" y="371.85" text-anchor="middle" font-size="11" fill="#333">7.65</text><text x="420.00" y="398.00" text-anchor="middle" font-size="12" fill="#333">reservoir_reoperation</text><rect x="583.33" y="60.00" width="140.00" height="320.00" fill="#b0c4de" /><text x="653.33" y="54.00" text-anchor="middle" font-size="11" fill="#333">1141.42</text><text x="653.33" y="398.00" text-anchor="middle" font-size="12" fill="#333">vic_hbv_tuning</text></svg>