<svg xmlns="http://www.w3.org/2000/svg" width="800" height="450" viewBox="0 0 800 450"><rect width="100%" height="100%" fill="white"/><text x="400.0" y="30" text-anchor="middle" font-size="20" fill="#111">Aggregated MAE by Model</text><text x="35.0" y="40" text-anchor="middle" font-size="12" fill="#333" transform="rotate(-90 35.0,220.0)">MAE</text><line x1="70" y1="380" x2="70" y2="60" stroke="#444" stroke-width="1"/><line x1="70" y1="380" x2="770" y2="380" stroke="#444" stroke-width="1"/><line x1="70" y1="380.0" x2="770" y2="380.0" stroke="#e0e0e0" stroke-width="1" stroke-dasharray="4,4"/><text x="60" y="384.0" text-anchor="end" font-size="11" fill="#333">0.00</text><line x1="70" y1="316.0" x2="770" y2="316.0" stroke="#e0e0e0" stroke-width="1" stroke-dasharray="4,4"/><text x="60" y="320.0" text-anchor="end" font-size="11" fill="#333">25.08</text><line x1="70" y1="252.0" x2="770" y2="252.0" stroke="#e0e0e0" stroke-width="1" stroke-dasharray="4,4"/><text x="60" y="256.0" text-anchor="end" font-size="11" fill="#333">50.15</text><line x1="70" y1="188.0" x2="770" y2="188.0" stroke="#e0e0e0" stroke-width="1" stroke-dasharray="4,4"/><text x="60" y="192.0" text-anchor="end" font-size="11" fill="#333">75.23</text><line x1="70" y1="124.0" x2="770" y2="124.0" stroke="#e0e0e0" stroke-width="1" stroke-dasharray="4,4"/><text x="60" y="128.0" text-anchor="end" font-size="11" fill="#333">100.31</text><line x1="70" y1="60.0" x2="770" y2="60.0" stroke="#e0e0e0" stroke-width="1" stroke-dasharray="4,4"/><text x="60" y="64.0" text-anchor="end" font-size="11" fill="#333">125.38</text><rect x="140.00" y="263.59" width="210.00" height="116.41" fill="#2ca02c" /><text x="245.00" y="257.59" text-anchor="middle" font-size="11" fill="#333">45.61</text><text x="245.00" y="398.00" text-anchor="middle" font-size="12" fill="#333">baseline</text><rect x="490.00" y="60.00" width="210.00" height="320.00" fill="#b0c4de" /><text x="595.00" y="54.00" text-anchor="middle" font-size="11" fill="#333">125.38</text><text x="595.00" y="398.00" text-anchor="middle" font-size="12" fill="#333">reservoir_reoperation</text></svg>