<svg xmlns="http://www.w3.org/2000/svg" width="800" height="450" viewBox="0 0 800 450"><rect width="100%" height="100%" fill="white"/><text x="400.0" y="30" text-anchor="middle" font-size="20" fill="#111">Aggregated RMSE by Model</text><text x="35.0" y="40" text-anchor="middle" font-size="12" fill="#333" transform="rotate(-90 35.0,220.0)">RMSE</text><line x1="70" y1="380" x2="70" y2="60" stroke="#444" stroke-width="1"/><line x1="70" y1="380" x2="770" y2="380" stroke="#444" stroke-width="1"/><line x1="70" y1="380.0" x2="770" y2="380.0" stroke="#e0e0e0" stroke-width="1" stroke-dasharray="4,4"/><text x="60" y="384.0" text-anchor="end" font-size="11" fill="#333">0.00</text><line x1="70" y1="316.0" x2="770" y2="316.0" stroke="#e0e0e0" stroke-width="1" stroke-dasharray="4,4"/><text x="60" y="320.0" text-anchor="end" font-size="11" fill="#333">317.50</text><line x1="70" y1="252.0" x2="770" y2="252.0" stroke="#e0e0e0" stroke-width="1" stroke-dasharray="4,4"/><text x="60" y="256.0" text-anchor="end" font-size="11" fill="#333">635.00</text><line x1="70" y1="187.99999999999997" x2="770" y2="187.99999999999997" stroke="#e0e0e0" stroke-width="1" stroke-dasharray="4,4"/><text x="60" y="191.99999999999997" text-anchor="end" font-size="11" fill="#333">952.49</text><line x1="70" y1="124.0" x2="770" y2="124.0" stroke="#e0e0e0" stroke-width="1" stroke-dasharray="4,4"/><text x="60" y="128.0" text-anchor="end" font-size="11" fill="#333">1269.99</text><line x1="70" y1="60.0" x2="770" y2="60.0" stroke="#e0e0e0" stroke-width="1" stroke-dasharray="4,4"/><text x="60" y="64.0" text-anchor="end" font-size="11" fill="#333">1587.49</text><rect x="116.67" y="366.63" width="140.00" height="13.37" fill="#2ca02c" /><text x="186.67" y="360.63" text-anchor="middle" font-size="11" fill="#333">66.32</text><text x="186.67" y="398.00" text-anchor="middle" font-size="12" fill="#333">baseline</text><rect x="350.00" y="347.47" width="140.00" height="32.53" fill="#b0c4de" /><text x="420.00" y="341.47" text-anchor="middle" font-size="11" fill="#333">161.39</text><text x="420.00" y="398.00" text-anchor="middle" font-size="12" fill="#333">reservoir_reoperation</text><rect x="583.33" y="60.00" width="140.00" height="320.00" fill="#b0c4de" /><text x="653.33" y="54.00" text-anchor="middle" font-size="11" fill="#333">1587.49</text><text x="653.33" y="398.00" text-anchor="middle" font-size="12" fill="#333">vic_hbv_tuning</text></svg>